# xmcd
#
# Track frame offsets:
#	150
#	21194
#	38503
#	51414
#	67506
#	78400
#	91859
#	106048
#	120468
#	134679
#	151146
#	170735
#	185935
#	197519
#	206383
#	219730
#	235585
#	246320
#	259834
#	270054
#	283429
#	293042
#	308617
#	315722
#	321729
#	333097
#
# Disc length: 4588 seconds
#
# Revision: 0
# Processed by: cddbd v1.5.1PL2 Copyright (c) Steve Scherf et al.
# Submitted via: audiograbber 1.83.01
#
DISCID=7311ea1a
DTITLE=Rudi Neitz - Die Lewenslied van Rudi Neitz
DYEAR=1999
DGENRE=Afrikaans
TTITLE0=Jerusalem
TTITLE1=Hoe Groot is U
TTITLE2=Going Home
TTITLE3=In Die Tuin
TTITLE4=Bolandse Berge
TTITLE5=My Beminde
TTITLE6=Nadia
TTITLE7=Afrikaanse Wiegelied
TTITLE8=Sonder Jou
TTITLE9='n Goue Dag
TTITLE10=Boodskap Van Liefde
TTITLE11=Jou Groot Kaptein
TTITLE12=Bly By My Heer
TTITLE13=U Het My Lief
TTITLE14=Nader, Steeds Nader
TTITLE15=God Sal u Veilig Lei
TTITLE16=Ewige Rots
TTITLE17=Vir Ewig en Altyd
TTITLE18=Kom Kinders, Kom Juig Nou
TTITLE19=Stille Nag
TTITLE20=O Die Vrolike, O Die Salige
TTITLE21=Bethlehem Ster, O Wonderlig
TTITLE22=Die Heiland is Gebore
TTITLE23=Hoor Die Blye Englesang
TTITLE24=Mooi Is Die Lewe Nou
TTITLE25=Bosveldaand
EXTD=
EXTT0=
EXTT1=
EXTT2=
EXTT3=
EXTT4=
EXTT5=
EXTT6=
EXTT7=
EXTT8=
EXTT9=
EXTT10=
EXTT11=
EXTT12=
EXTT13=
EXTT14=
EXTT15=
EXTT16=
EXTT17=
EXTT18=
EXTT19=
EXTT20=
EXTT21=
EXTT22=
EXTT23=
EXTT24=
EXTT25=
PLAYORDER=
